# xmcd
#
# Track frame offsets:
#	150
#	22418
#	43111
#	63688
#	83514
#	100063
#	118816
#	133234
#	147788
#	166337
#	182076
#	198605
#	214904
#	230158
#	246269
#	261033
#	277578
#	294170
#	310120
#	326633
#
# Disc length: 4540 seconds
#
# Revision: 1
# Processed by: cddbd v1.5.2PL0 Copyright (c) Steve Scherf et al.
# Submitted via: dBpowerAMP V4.0
#
DISCID=3011ba14
DTITLE=Various Artist - ERG Nu Country Traxx Vol. 198 CAN
DYEAR=2010
DGENRE=Country
TTITLE0=Taylor Swift - Back To December
TTITLE1=Various Artist - Standing Strong And True (For Tomorrow)
TTITLE2=Sugarland - Little Miss
TTITLE3=Dean Brody - Trail In Life
TTITLE4=Darius Rucker - This
TTITLE5=George Canyon - Better Be Home Soon
TTITLE6=Gord Bamford - My Daughter's Father
TTITLE7=Emerson Drive - When I See You Again
TTITLE8=Easton Corbin - I Can't Love You Back
TTITLE9=Josh Thompson - Won't Be Lonely Long
TTITLE10=Melissa Rae Barrie - Passenger Window
TTITLE11=Sunny Sweeney - From A Table Away
TTITLE12=Aaron Lines - These Are Those Days
TTITLE13=Josh Turner - I Wouldn't Be A Man
TTITLE14=Crystal Shawanda - Fight For Me
TTITLE15=Jo Hikk - With A Smile Like That
TTITLE16=Brett Eldredge - Raymond
TTITLE17=Chuck Wicks - Old School
TTITLE18=Christian Kane - The House Rules
TTITLE19=Josh Kelley - Georgia Clay
EXTD=
EXTT0=
EXTT1=
EXTT2=
EXTT3=
EXTT4=
EXTT5=
EXTT6=
EXTT7=
EXTT8=
EXTT9=
EXTT10=
EXTT11=
EXTT12=
EXTT13=
EXTT14=
EXTT15=
EXTT16=
EXTT17=
EXTT18=
EXTT19=
PLAYORDER=
